<svg width="32" height="32" viewBox="0 0 32 32" fill="none" xmlns="http://www.w3.org/2000/svg">
<path fill-rule="evenodd" clip-rule="evenodd" d="M6.4 4C5.07452 4 4 5.07452 4 6.4V12.4C4 13.7255 5.07452 14.8 6.4 14.8H18.1743L16 12.6667H6.4C6.25272 12.6667 6.13333 12.5473 6.13333 12.4V6.4C6.13333 6.25272 6.25272 6.13333 6.4 6.13333H22.24L23.6933 4H6.4ZM6.4 17.1999C5.07452 17.1999 4 18.2744 4 19.5999V25.5999C4 26.9254 5.07452 27.9999 6.4 27.9999L18 28L15.8667 25.8665H6.4C6.25272 25.8665 6.13333 25.7471 6.13333 25.5999V19.5999C6.13333 19.4526 6.25272 19.3332 6.4 19.3332H22.3438L23.7333 17.2708C23.6144 17.225 23.4674 17.1999 23.3323 17.1999H6.4Z" fill="#F4F5F6"/>
<path fill-rule="evenodd" clip-rule="evenodd" d="M27.2627 4.45057C27.7497 4.78201 27.8759 5.44551 27.5444 5.93253L22.1 13.9325C21.9212 14.1952 21.6346 14.3645 21.3183 14.3943C21.002 14.4242 20.6888 14.3115 20.4641 14.0868L17.129 10.7535C16.7124 10.3371 16.7122 9.66168 17.1286 9.24501C17.5451 8.82834 18.2205 8.82817 18.6371 9.24462L21.0611 11.6673L25.7808 4.73226C26.1122 4.24524 26.7757 4.11912 27.2627 4.45057Z" fill="#B1CEFB"/>
<path fill-rule="evenodd" clip-rule="evenodd" d="M27.2627 17.7846C27.7497 18.116 27.8759 18.7795 27.5444 19.2665L22.1 27.2665C21.9212 27.5292 21.6346 27.6985 21.3183 27.7283C21.002 27.7582 20.6888 27.6454 20.4641 27.4208L17.129 24.0875C16.7124 23.671 16.7122 22.9957 17.1286 22.579C17.5451 22.1623 18.2205 22.1622 18.6371 22.5786L21.0611 25.0013L25.7808 18.0662C26.1122 17.5792 26.7757 17.4531 27.2627 17.7846Z" fill="#B1CEFB"/>
</svg>
