<svg width="20" height="20" viewBox="0 0 20 20" fill="none" xmlns="http://www.w3.org/2000/svg">
<rect width="16.6667" height="16.6667" rx="8.33333" transform="matrix(1 0 0 -1 1.66797 18.334)" fill="#052B57"/>
<path d="M9.91471 7.86816C10.467 7.86816 10.9147 7.42045 10.9147 6.86816C10.9147 6.31588 10.467 5.86816 9.91471 5.86816C9.36243 5.86816 8.91471 6.31588 8.91471 6.86816C8.91471 7.42045 9.36243 7.86816 9.91471 7.86816Z" fill="white"/>
<path d="M8.69805 8.69328C8.58759 8.69328 8.49805 8.78282 8.49805 8.89328V9.49328C8.49805 9.60373 8.58759 9.69328 8.69805 9.69328H9.21602C9.32647 9.69328 9.41602 9.78282 9.41602 9.89328V12.9954H8.53203C8.42157 12.9954 8.33203 13.085 8.33203 13.1954V13.7954C8.33203 13.9059 8.42157 13.9954 8.53203 13.9954H11.4654C11.5758 13.9954 11.6654 13.9059 11.6654 13.7954V13.1954C11.6654 13.085 11.5758 12.9954 11.4654 12.9954H10.916V8.89328C10.916 8.78282 10.8265 8.69328 10.716 8.69328H8.69805Z" fill="white"/>
</svg>
